<svg width="24" height="24" xmlns="http://www.w3.org/2000/svg" xmlns:xlink="http://www.w3.org/1999/xlink" xml:space="preserve" overflow="hidden">
    <g transform="translate(-128 -392)">
        <path d="M134.142 404.006C134.142 400.774 136.762 398.154 139.994 398.154 143.226 398.154 145.846 400.774 145.846 404.006 145.846 407.238 143.226 409.858 139.994 409.858 136.762 409.858 134.142 407.238 134.142 404.006Z" stroke="#FFFFFF" stroke-width="0.720403" stroke-miterlimit="8" stroke-opacity="0.8" fill-rule="evenodd"/>
        <path d="M134.142 403.994C134.142 400.762 136.765 398.142 140 398.142 143.235 398.142 145.858 400.762 145.858 403.994 145.858 407.226 143.235 409.846 140 409.846 136.765 409.846 134.142 407.226 134.142 403.994Z" fill-rule="evenodd"/>
        <path d="M134.831 404 140 404 135.225 402.022 140 404 136.345 400.345 140 404 138.022 399.225 140 404 140 398.831 140 404 141.978 399.225 140 404 143.655 400.345 140 404 144.775 402.022 140 404 145.169 404 140 404 144.775 405.978 140 404 143.655 407.655 140 404 141.978 408.775 140 404 140 409.169 140 404 138.022 408.775 140 404 136.345 407.655 140 404 135.225 405.978 140 404Z" stroke="#FFFFFF" stroke-width="0.332494" stroke-miterlimit="8" fill="#4472C4" fill-rule="evenodd"/>
        <path d="M136.27 404.085C136.27 402.025 137.94 400.355 140 400.355 142.06 400.355 143.73 402.025 143.73 404.085 143.73 406.145 142.06 407.815 140 407.815 137.94 407.815 136.27 406.145 136.27 404.085Z" fill-rule="evenodd"/>
        <path d="M139.583 398.456 140.417 398.456 140.417 400.56 139.583 400.56Z"/>
        <path d="M139.607 407.404 140.441 407.404 140.441 409.519 139.607 409.519Z"/>
        <path d="M138.35 404 140 398.372 141.65 404 140 409.628Z" fill="#FFFFFF" fill-rule="evenodd"/>
        <path d="M141.312 404.091 140 408.576 138.688 404.091Z" fill-rule="evenodd"/>
        <path d="M140.199 393.638 140.545 393.638C140.577 393.639 140.593 393.655 140.594 393.687L140.594 394.638C140.713 394.592 140.828 394.532 140.938 394.459 141.048 394.386 141.149 394.303 141.238 394.212 141.244 394.206 141.25 394.202 141.256 394.199 141.262 394.196 141.268 394.194 141.273 394.194 141.287 394.194 141.298 394.201 141.308 394.215L141.549 394.519C141.554 394.525 141.558 394.531 141.561 394.537 141.565 394.543 141.566 394.549 141.566 394.554 141.566 394.565 141.56 394.575 141.549 394.586 141.421 394.704 141.275 394.81 141.109 394.902 140.944 394.995 140.772 395.069 140.594 395.124L140.594 396.163C140.593 396.205 140.602 396.236 140.62 396.256 140.638 396.277 140.665 396.289 140.702 396.292 140.744 396.295 140.788 396.296 140.834 396.296 140.857 396.296 140.879 396.296 140.901 396.295 140.923 396.295 140.944 396.294 140.963 396.292 141.01 396.291 141.049 396.276 141.078 396.249 141.108 396.221 141.13 396.159 141.145 396.063 141.16 395.968 141.169 395.818 141.172 395.614 141.172 395.593 141.177 395.578 141.187 395.571 141.197 395.563 141.21 395.563 141.228 395.572L141.573 395.733C141.597 395.744 141.609 395.764 141.608 395.792 141.602 396.058 141.579 396.257 141.54 396.389 141.5 396.521 141.436 396.609 141.349 396.654 141.261 396.699 141.143 396.723 140.994 396.726 140.97 396.728 140.943 396.729 140.915 396.729 140.886 396.729 140.857 396.729 140.827 396.729 140.785 396.729 140.743 396.729 140.702 396.729 140.661 396.729 140.624 396.728 140.59 396.726 140.43 396.723 140.316 396.689 140.249 396.626 140.181 396.562 140.149 396.458 140.151 396.313L140.151 393.687C140.151 393.655 140.168 393.639 140.199 393.638ZM139.408 393.638 139.753 393.638C139.785 393.639 139.801 393.655 139.802 393.687L139.802 396.733C139.801 396.765 139.785 396.781 139.753 396.782L139.408 396.782C139.376 396.781 139.36 396.765 139.359 396.733L139.359 396.194C139.247 396.258 139.123 396.316 138.989 396.371 138.855 396.425 138.715 396.472 138.571 396.513 138.568 396.513 138.565 396.513 138.563 396.514 138.56 396.515 138.557 396.516 138.554 396.516 138.533 396.516 138.519 396.503 138.512 396.478L138.408 396.1C138.407 396.097 138.407 396.094 138.406 396.091 138.405 396.089 138.404 396.086 138.404 396.083 138.405 396.062 138.417 396.048 138.442 396.041 138.603 396.006 138.761 395.962 138.915 395.909 139.07 395.855 139.218 395.792 139.359 395.719L139.359 394.936 138.557 394.936C138.525 394.935 138.509 394.919 138.509 394.887L138.509 394.526C138.509 394.494 138.525 394.478 138.557 394.477L139.359 394.477 139.359 393.687C139.36 393.655 139.376 393.639 139.408 393.638Z" stroke="#000000" stroke-width="0.664987" stroke-linejoin="round" stroke-miterlimit="10" fill-rule="evenodd"/><path d="M140.193 393.632 140.539 393.632C140.571 393.633 140.587 393.649 140.587 393.681L140.587 394.632C140.707 394.586 140.822 394.526 140.932 394.453 141.042 394.38 141.143 394.297 141.232 394.206 141.238 394.2 141.244 394.196 141.25 394.193 141.256 394.19 141.262 394.188 141.267 394.188 141.281 394.188 141.292 394.195 141.302 394.209L141.543 394.513C141.548 394.519 141.552 394.525 141.555 394.531 141.558 394.537 141.56 394.543 141.56 394.548 141.56 394.559 141.554 394.569 141.543 394.58 141.415 394.698 141.269 394.803 141.103 394.896 140.938 394.989 140.766 395.063 140.587 395.118L140.587 396.157C140.587 396.199 140.596 396.23 140.614 396.25 140.632 396.271 140.659 396.283 140.696 396.286 140.738 396.289 140.782 396.29 140.828 396.29 140.851 396.29 140.873 396.29 140.895 396.289 140.917 396.289 140.938 396.288 140.957 396.286 141.004 396.285 141.043 396.27 141.072 396.242 141.102 396.215 141.124 396.153 141.139 396.057 141.154 395.962 141.163 395.812 141.166 395.608 141.166 395.587 141.171 395.572 141.181 395.565 141.191 395.557 141.204 395.557 141.222 395.566L141.567 395.727C141.591 395.738 141.603 395.758 141.602 395.786 141.596 396.052 141.573 396.25 141.534 396.383 141.494 396.515 141.43 396.603 141.343 396.648 141.255 396.693 141.137 396.717 140.988 396.72 140.964 396.722 140.937 396.723 140.909 396.723 140.88 396.723 140.851 396.723 140.821 396.723 140.779 396.723 140.737 396.723 140.696 396.723 140.655 396.723 140.618 396.722 140.584 396.72 140.424 396.716 140.31 396.683 140.243 396.62 140.175 396.556 140.143 396.452 140.145 396.307L140.145 393.681C140.145 393.649 140.162 393.633 140.193 393.632ZM139.402 393.632 139.747 393.632C139.779 393.633 139.795 393.649 139.796 393.681L139.796 396.727C139.795 396.759 139.779 396.775 139.747 396.776L139.402 396.776C139.37 396.775 139.354 396.759 139.353 396.727L139.353 396.188C139.241 396.252 139.117 396.31 138.983 396.365 138.848 396.419 138.709 396.466 138.565 396.507 138.562 396.507 138.559 396.507 138.557 396.508 138.554 396.509 138.551 396.51 138.548 396.51 138.527 396.509 138.513 396.497 138.506 396.472L138.401 396.094C138.401 396.091 138.401 396.088 138.4 396.085 138.399 396.083 138.398 396.08 138.398 396.076 138.399 396.055 138.411 396.042 138.436 396.035 138.597 396 138.755 395.956 138.909 395.902 139.064 395.849 139.212 395.786 139.353 395.713L139.353 394.93 138.551 394.93C138.519 394.929 138.503 394.913 138.503 394.881L138.503 394.52C138.503 394.488 138.519 394.472 138.551 394.471L139.353 394.471 139.353 393.681C139.354 393.649 139.37 393.633 139.402 393.632Z" fill="#FFFFFF" fill-rule="evenodd"/>
    </g>
</svg>